<mxfile host="app.diagrams.net" modified="2024-05-14T10:04:11.450Z" agent="Mozilla/5.0 (Windows NT 10.0; Win64; x64) AppleWebKit/537.36 (KHTML, like Gecko) Chrome/124.0.0.0 Safari/537.36" etag="0-kMUnEj6Z4JvXKtvjs-" version="24.4.0" type="github">
  <diagram name="Страница — 1" id="hOGnENb7-r2Y_ujhAdBm">
    <mxGraphModel dx="2840" dy="1551" grid="1" gridSize="10" guides="1" tooltips="1" connect="1" arrows="1" fold="1" page="1" pageScale="1" pageWidth="827" pageHeight="1169" math="0" shadow="0">
      <root>
        <mxCell id="0" />
        <mxCell id="1" parent="0" />
        <mxCell id="nIQImTmmoqWG_EBxO1Kj-4" value="&lt;font style=&quot;font-size: 16px;&quot;&gt;Implement Class Agency&lt;/font&gt;" style="shape=note2;boundedLbl=1;whiteSpace=wrap;html=1;size=15;verticalAlign=top;align=center;" vertex="1" parent="1">
          <mxGeometry x="235" y="110" width="260" height="60" as="geometry" />
        </mxCell>
        <mxCell id="nIQImTmmoqWG_EBxO1Kj-6" value="&lt;font style=&quot;font-size: 16px;&quot;&gt;MainInsuranceAgency.exe&lt;/font&gt;" style="shape=module;align=left;spacingLeft=20;align=center;verticalAlign=top;whiteSpace=wrap;html=1;jettyWidth=67;jettyHeight=12;" vertex="1" parent="1">
          <mxGeometry x="180" y="310" width="330" height="60" as="geometry" />
        </mxCell>
        <mxCell id="nIQImTmmoqWG_EBxO1Kj-7" value="" style="shape=parallelogram;perimeter=parallelogramPerimeter;whiteSpace=wrap;html=1;fixedSize=1;" vertex="1" parent="1">
          <mxGeometry x="340" y="460" width="80" height="100" as="geometry" />
        </mxCell>
        <mxCell id="nIQImTmmoqWG_EBxO1Kj-8" value="" style="rounded=0;whiteSpace=wrap;html=1;" vertex="1" parent="1">
          <mxGeometry x="330" y="480" width="70" height="10" as="geometry" />
        </mxCell>
        <mxCell id="nIQImTmmoqWG_EBxO1Kj-9" value="" style="rounded=0;whiteSpace=wrap;html=1;" vertex="1" parent="1">
          <mxGeometry x="330" y="505" width="70" height="10" as="geometry" />
        </mxCell>
        <mxCell id="nIQImTmmoqWG_EBxO1Kj-10" value="" style="rounded=0;whiteSpace=wrap;html=1;" vertex="1" parent="1">
          <mxGeometry x="330" y="530" width="70" height="10" as="geometry" />
        </mxCell>
        <mxCell id="nIQImTmmoqWG_EBxO1Kj-11" value="" style="shape=parallelogram;perimeter=parallelogramPerimeter;whiteSpace=wrap;html=1;fixedSize=1;fillColor=#6E6E6E;" vertex="1" parent="1">
          <mxGeometry x="320" y="630" width="80" height="100" as="geometry" />
        </mxCell>
        <mxCell id="nIQImTmmoqWG_EBxO1Kj-12" value="" style="rounded=0;whiteSpace=wrap;html=1;" vertex="1" parent="1">
          <mxGeometry x="300" y="652.5" width="70" height="10" as="geometry" />
        </mxCell>
        <mxCell id="nIQImTmmoqWG_EBxO1Kj-13" value="" style="rounded=0;whiteSpace=wrap;html=1;" vertex="1" parent="1">
          <mxGeometry x="300" y="675" width="70" height="10" as="geometry" />
        </mxCell>
        <mxCell id="nIQImTmmoqWG_EBxO1Kj-14" value="" style="rounded=0;whiteSpace=wrap;html=1;" vertex="1" parent="1">
          <mxGeometry x="300" y="697.5" width="70" height="10" as="geometry" />
        </mxCell>
        <mxCell id="nIQImTmmoqWG_EBxO1Kj-15" value="" style="swimlane;whiteSpace=wrap;html=1;startSize=30;fillColor=#7a7a7a;swimlaneLine=0;arcSize=9;editable=1;movable=1;resizable=1;rotatable=1;deletable=1;locked=0;connectable=1;pointerEvents=0;strokeColor=default;" vertex="1" parent="1">
          <mxGeometry x="800" y="285" width="60" height="110" as="geometry">
            <mxRectangle x="570" y="450" width="50" height="40" as="alternateBounds" />
          </mxGeometry>
        </mxCell>
        <mxCell id="nIQImTmmoqWG_EBxO1Kj-18" value="&lt;div&gt;&lt;font style=&quot;font-size: 16px;&quot;&gt;Implement Interface Agency&lt;/font&gt;&lt;br&gt;&lt;/div&gt;" style="shape=note2;boundedLbl=1;whiteSpace=wrap;html=1;size=16;verticalAlign=top;align=center;" vertex="1" parent="1">
          <mxGeometry x="700" y="110" width="260" height="60" as="geometry" />
        </mxCell>
        <mxCell id="nIQImTmmoqWG_EBxO1Kj-25" style="rounded=0;orthogonalLoop=1;jettySize=auto;html=1;exitX=0.5;exitY=1;exitDx=0;exitDy=0;exitPerimeter=0;entryX=0.565;entryY=0.023;entryDx=0;entryDy=0;entryPerimeter=0;endArrow=none;endFill=0;dashed=1;" edge="1" parent="1" source="nIQImTmmoqWG_EBxO1Kj-4" target="nIQImTmmoqWG_EBxO1Kj-6">
          <mxGeometry relative="1" as="geometry">
            <mxPoint x="400" y="300" as="targetPoint" />
          </mxGeometry>
        </mxCell>
        <mxCell id="nIQImTmmoqWG_EBxO1Kj-26" style="rounded=0;orthogonalLoop=1;jettySize=auto;html=1;exitX=1;exitY=0.5;exitDx=0;exitDy=0;entryX=0;entryY=0.5;entryDx=0;entryDy=0;dashed=1;endArrow=open;endFill=0;" edge="1" parent="1" source="nIQImTmmoqWG_EBxO1Kj-6" target="nIQImTmmoqWG_EBxO1Kj-15">
          <mxGeometry relative="1" as="geometry">
            <mxPoint x="390" y="380" as="sourcePoint" />
            <mxPoint x="550" y="480" as="targetPoint" />
          </mxGeometry>
        </mxCell>
        <mxCell id="nIQImTmmoqWG_EBxO1Kj-27" style="rounded=0;orthogonalLoop=1;jettySize=auto;html=1;exitX=0.5;exitY=1;exitDx=0;exitDy=0;exitPerimeter=0;entryX=0.5;entryY=0;entryDx=0;entryDy=0;endArrow=none;endFill=0;dashed=1;" edge="1" parent="1" source="nIQImTmmoqWG_EBxO1Kj-18" target="nIQImTmmoqWG_EBxO1Kj-15">
          <mxGeometry relative="1" as="geometry">
            <mxPoint x="410" y="180" as="sourcePoint" />
            <mxPoint x="411" y="321" as="targetPoint" />
          </mxGeometry>
        </mxCell>
        <mxCell id="nIQImTmmoqWG_EBxO1Kj-28" value="" style="shape=parallelogram;perimeter=parallelogramPerimeter;whiteSpace=wrap;html=1;fixedSize=1;fillColor=#6E6E6E;" vertex="1" parent="1">
          <mxGeometry x="190" y="760" width="80" height="100" as="geometry" />
        </mxCell>
        <mxCell id="nIQImTmmoqWG_EBxO1Kj-29" value="" style="rounded=0;whiteSpace=wrap;html=1;" vertex="1" parent="1">
          <mxGeometry x="170" y="782.5" width="70" height="10" as="geometry" />
        </mxCell>
        <mxCell id="nIQImTmmoqWG_EBxO1Kj-30" value="" style="rounded=0;whiteSpace=wrap;html=1;" vertex="1" parent="1">
          <mxGeometry x="170" y="805" width="70" height="10" as="geometry" />
        </mxCell>
        <mxCell id="nIQImTmmoqWG_EBxO1Kj-31" value="" style="rounded=0;whiteSpace=wrap;html=1;" vertex="1" parent="1">
          <mxGeometry x="170" y="827.5" width="70" height="10" as="geometry" />
        </mxCell>
        <mxCell id="nIQImTmmoqWG_EBxO1Kj-32" value="" style="shape=parallelogram;perimeter=parallelogramPerimeter;whiteSpace=wrap;html=1;fixedSize=1;fillColor=#6E6E6E;" vertex="1" parent="1">
          <mxGeometry x="510" y="760" width="80" height="100" as="geometry" />
        </mxCell>
        <mxCell id="nIQImTmmoqWG_EBxO1Kj-33" value="" style="rounded=0;whiteSpace=wrap;html=1;" vertex="1" parent="1">
          <mxGeometry x="490" y="782.5" width="70" height="10" as="geometry" />
        </mxCell>
        <mxCell id="nIQImTmmoqWG_EBxO1Kj-34" value="" style="rounded=0;whiteSpace=wrap;html=1;" vertex="1" parent="1">
          <mxGeometry x="490" y="805" width="70" height="10" as="geometry" />
        </mxCell>
        <mxCell id="nIQImTmmoqWG_EBxO1Kj-35" value="" style="rounded=0;whiteSpace=wrap;html=1;" vertex="1" parent="1">
          <mxGeometry x="490" y="827.5" width="70" height="10" as="geometry" />
        </mxCell>
        <mxCell id="nIQImTmmoqWG_EBxO1Kj-36" value="" style="shape=parallelogram;perimeter=parallelogramPerimeter;whiteSpace=wrap;html=1;fixedSize=1;fillColor=#6E6E6E;" vertex="1" parent="1">
          <mxGeometry x="50" y="910" width="80" height="100" as="geometry" />
        </mxCell>
        <mxCell id="nIQImTmmoqWG_EBxO1Kj-37" value="" style="rounded=0;whiteSpace=wrap;html=1;" vertex="1" parent="1">
          <mxGeometry x="30" y="932.5" width="70" height="10" as="geometry" />
        </mxCell>
        <mxCell id="nIQImTmmoqWG_EBxO1Kj-38" value="" style="rounded=0;whiteSpace=wrap;html=1;" vertex="1" parent="1">
          <mxGeometry x="30" y="955" width="70" height="10" as="geometry" />
        </mxCell>
        <mxCell id="nIQImTmmoqWG_EBxO1Kj-39" value="" style="rounded=0;whiteSpace=wrap;html=1;" vertex="1" parent="1">
          <mxGeometry x="30" y="977.5" width="70" height="10" as="geometry" />
        </mxCell>
        <mxCell id="nIQImTmmoqWG_EBxO1Kj-40" value="" style="shape=parallelogram;perimeter=parallelogramPerimeter;whiteSpace=wrap;html=1;fixedSize=1;fillColor=#6E6E6E;" vertex="1" parent="1">
          <mxGeometry x="305" y="910" width="80" height="100" as="geometry" />
        </mxCell>
        <mxCell id="nIQImTmmoqWG_EBxO1Kj-41" value="" style="rounded=0;whiteSpace=wrap;html=1;" vertex="1" parent="1">
          <mxGeometry x="285" y="932.5" width="70" height="10" as="geometry" />
        </mxCell>
        <mxCell id="nIQImTmmoqWG_EBxO1Kj-42" value="" style="rounded=0;whiteSpace=wrap;html=1;" vertex="1" parent="1">
          <mxGeometry x="285" y="955" width="70" height="10" as="geometry" />
        </mxCell>
        <mxCell id="nIQImTmmoqWG_EBxO1Kj-43" value="" style="rounded=0;whiteSpace=wrap;html=1;" vertex="1" parent="1">
          <mxGeometry x="285" y="977.5" width="70" height="10" as="geometry" />
        </mxCell>
        <mxCell id="nIQImTmmoqWG_EBxO1Kj-44" style="rounded=0;orthogonalLoop=1;jettySize=auto;html=1;exitX=0.389;exitY=1.007;exitDx=0;exitDy=0;entryX=0.607;entryY=0.013;entryDx=0;entryDy=0;dashed=1;endArrow=open;endFill=0;exitPerimeter=0;entryPerimeter=0;" edge="1" parent="1" source="nIQImTmmoqWG_EBxO1Kj-7" target="nIQImTmmoqWG_EBxO1Kj-11">
          <mxGeometry relative="1" as="geometry">
            <mxPoint x="555" y="350" as="sourcePoint" />
            <mxPoint x="810" y="350" as="targetPoint" />
          </mxGeometry>
        </mxCell>
        <mxCell id="nIQImTmmoqWG_EBxO1Kj-45" style="rounded=0;orthogonalLoop=1;jettySize=auto;html=1;exitX=0.608;exitY=-0.02;exitDx=0;exitDy=0;dashed=1;endArrow=open;endFill=0;exitPerimeter=0;entryX=0.006;entryY=0.937;entryDx=0;entryDy=0;entryPerimeter=0;" edge="1" parent="1" source="nIQImTmmoqWG_EBxO1Kj-28" target="nIQImTmmoqWG_EBxO1Kj-11">
          <mxGeometry relative="1" as="geometry">
            <mxPoint x="381" y="591" as="sourcePoint" />
            <mxPoint x="320" y="730" as="targetPoint" />
          </mxGeometry>
        </mxCell>
        <mxCell id="nIQImTmmoqWG_EBxO1Kj-46" style="rounded=0;orthogonalLoop=1;jettySize=auto;html=1;exitX=0.547;exitY=0.002;exitDx=0;exitDy=0;dashed=1;endArrow=open;endFill=0;exitPerimeter=0;entryX=0.792;entryY=0.941;entryDx=0;entryDy=0;entryPerimeter=0;" edge="1" parent="1" source="nIQImTmmoqWG_EBxO1Kj-32" target="nIQImTmmoqWG_EBxO1Kj-11">
          <mxGeometry relative="1" as="geometry">
            <mxPoint x="249" y="768" as="sourcePoint" />
            <mxPoint x="330" y="740" as="targetPoint" />
          </mxGeometry>
        </mxCell>
        <mxCell id="nIQImTmmoqWG_EBxO1Kj-47" style="rounded=0;orthogonalLoop=1;jettySize=auto;html=1;exitX=0.602;exitY=-0.028;exitDx=0;exitDy=0;dashed=1;endArrow=open;endFill=0;exitPerimeter=0;entryX=0.75;entryY=1;entryDx=0;entryDy=0;" edge="1" parent="1" source="nIQImTmmoqWG_EBxO1Kj-40" target="nIQImTmmoqWG_EBxO1Kj-28">
          <mxGeometry relative="1" as="geometry">
            <mxPoint x="564" y="770" as="sourcePoint" />
            <mxPoint x="393" y="734" as="targetPoint" />
          </mxGeometry>
        </mxCell>
        <mxCell id="nIQImTmmoqWG_EBxO1Kj-49" style="rounded=0;orthogonalLoop=1;jettySize=auto;html=1;exitX=0.683;exitY=-0.021;exitDx=0;exitDy=0;dashed=1;endArrow=open;endFill=0;exitPerimeter=0;entryX=0;entryY=1;entryDx=0;entryDy=0;" edge="1" parent="1" source="nIQImTmmoqWG_EBxO1Kj-36" target="nIQImTmmoqWG_EBxO1Kj-28">
          <mxGeometry relative="1" as="geometry">
            <mxPoint x="363" y="917" as="sourcePoint" />
            <mxPoint x="260" y="870" as="targetPoint" />
          </mxGeometry>
        </mxCell>
        <mxCell id="nIQImTmmoqWG_EBxO1Kj-51" value="&lt;span style=&quot;color: rgb(0, 0, 0); font-family: Helvetica; font-size: 16px; font-style: normal; font-variant-ligatures: normal; font-variant-caps: normal; font-weight: 400; letter-spacing: normal; orphans: 2; text-align: center; text-indent: 0px; text-transform: none; widows: 2; word-spacing: 0px; -webkit-text-stroke-width: 0px; white-space: normal; background-color: rgb(251, 251, 251); text-decoration-thickness: initial; text-decoration-style: initial; text-decoration-color: initial; float: none; display: inline !important;&quot;&gt;MainInsuranceAgencyServer&lt;/span&gt;" style="text;whiteSpace=wrap;html=1;arcSize=16;absoluteArcSize=0;fontSize=16;" vertex="1" parent="1">
          <mxGeometry x="730" y="255" width="210" height="30" as="geometry" />
        </mxCell>
        <mxCell id="nIQImTmmoqWG_EBxO1Kj-53" value="" style="rounded=0;orthogonalLoop=1;jettySize=auto;html=1;exitX=0.599;exitY=1.03;exitDx=0;exitDy=0;entryX=0.5;entryY=0;entryDx=0;entryDy=0;dashed=1;endArrow=open;endFill=0;exitPerimeter=0;" edge="1" parent="1" source="nIQImTmmoqWG_EBxO1Kj-6" target="nIQImTmmoqWG_EBxO1Kj-7">
          <mxGeometry relative="1" as="geometry">
            <mxPoint x="378" y="372" as="sourcePoint" />
            <mxPoint x="380" y="440" as="targetPoint" />
          </mxGeometry>
        </mxCell>
        <mxCell id="nIQImTmmoqWG_EBxO1Kj-52" value="&lt;div style=&quot;text-align: center;&quot;&gt;&lt;span style=&quot;background-color: initial;&quot;&gt;Подача заявления на страхование&lt;/span&gt;&lt;/div&gt;" style="text;whiteSpace=wrap;html=1;arcSize=16;absoluteArcSize=0;fontSize=16;" vertex="1" parent="1">
          <mxGeometry x="270" y="395" width="210" height="30" as="geometry" />
        </mxCell>
        <mxCell id="nIQImTmmoqWG_EBxO1Kj-54" value="&lt;div style=&quot;text-align: center;&quot;&gt;&lt;span style=&quot;background-color: initial;&quot;&gt;Договор о страховании&lt;/span&gt;&lt;/div&gt;" style="text;whiteSpace=wrap;html=1;arcSize=16;absoluteArcSize=0;fontSize=16;" vertex="1" parent="1">
          <mxGeometry x="287.5" y="585" width="185" height="30" as="geometry" />
        </mxCell>
        <mxCell id="nIQImTmmoqWG_EBxO1Kj-56" value="&lt;div style=&quot;text-align: center;&quot;&gt;&lt;span style=&quot;background-color: initial;&quot;&gt;Данные о страховки&lt;/span&gt;&lt;/div&gt;" style="text;whiteSpace=wrap;html=1;arcSize=16;absoluteArcSize=0;fontSize=16;" vertex="1" parent="1">
          <mxGeometry x="125" y="710" width="160" height="42.5" as="geometry" />
        </mxCell>
        <mxCell id="nIQImTmmoqWG_EBxO1Kj-57" value="&lt;div style=&quot;text-align: center;&quot;&gt;&lt;span style=&quot;background-color: initial;&quot;&gt;Данные о пользователе&lt;/span&gt;&lt;/div&gt;" style="text;whiteSpace=wrap;html=1;arcSize=16;absoluteArcSize=0;fontSize=16;" vertex="1" parent="1">
          <mxGeometry x="472.5" y="710" width="185" height="30" as="geometry" />
        </mxCell>
        <mxCell id="nIQImTmmoqWG_EBxO1Kj-58" value="&lt;div style=&quot;text-align: center;&quot;&gt;&lt;span style=&quot;background-color: initial;&quot;&gt;Описание вида страхования&lt;/span&gt;&lt;/div&gt;" style="text;whiteSpace=wrap;html=1;arcSize=16;absoluteArcSize=0;fontSize=16;" vertex="1" parent="1">
          <mxGeometry x="10" y="850" width="160" height="42.5" as="geometry" />
        </mxCell>
        <mxCell id="nIQImTmmoqWG_EBxO1Kj-59" value="&lt;div style=&quot;text-align: center;&quot;&gt;Срок действия страхования&lt;/div&gt;" style="text;whiteSpace=wrap;html=1;arcSize=16;absoluteArcSize=0;fontSize=16;" vertex="1" parent="1">
          <mxGeometry x="280" y="850" width="160" height="42.5" as="geometry" />
        </mxCell>
      </root>
    </mxGraphModel>
  </diagram>
</mxfile>
